<svg width="352.925px" height="423.2px" xmlns="http://www.w3.org/2000/svg" viewBox="73.5375 -136.6 352.925 423.2" style="background: rgba(89, 104, 134, 0);" preserveAspectRatio="xMidYMid"><defs><filter id="editing-hover" x="-100%" y="-100%" width="300%" height="300%"><feFlood flood-color="rgba(1.9607843137254888%,16.862745098039188%,29.01960784313726%,0)" result="flood"></feFlood><feComposite operator="in" in2="SourceAlpha" in="flood" result="shadow"></feComposite><feOffset dx="0.1" dy="0.1" in="SourceGraphic" result="offset-1"></feOffset><feOffset dx="-0.1" dy="-0.1" in="shadow" result="offset-2"></feOffset><feMerge><feMergeNode in="offset-2"></feMergeNode><feMergeNode in="offset-1"></feMergeNode></feMerge></filter></defs><g filter="url(#editing-hover)"><g transform="translate(124.49999046325684, 127.39999389648438)"><path d="M38-73.60L38-73.60L38-73.60Q38-66.40 44.10-62.60L44.10-62.60L44.10-62.60Q50.20-58.80 66.40-57.60L66.40-57.60L66.40-57.60Q83.80-56.20 92.90-49.30L92.90-49.30L92.90-49.30Q102-42.40 102-29.20L102-29.20L102-28L102-28Q102-20.80 99.10-15.10L99.10-15.10L99.10-15.10Q96.20-9.40 91.10-5.40L91.10-5.40L91.10-5.40Q86-1.40 78.70 0.70L78.70 0.70L78.70 0.70Q71.40 2.80 62.80 2.80L62.80 2.80L62.80 2.80Q51.20 2.80 42.90-0.30L42.90-0.30L42.90-0.30Q34.60-3.40 29.10-8.50L29.10-8.50L29.10-8.50Q23.60-13.60 20.80-20.10L20.80-20.10L20.80-20.10Q18-26.60 17.60-33.20L17.60-33.20L32.40-36.80L32.40-36.80Q33.40-25.40 41.20-18.50L41.20-18.50L41.20-18.50Q49-11.60 62-11.60L62-11.60L62-11.60Q73-11.60 79.70-15.90L79.70-15.90L79.70-15.90Q86.40-20.20 86.40-28L86.40-28L86.40-28Q86.40-36.40 79.80-40L79.80-40L79.80-40Q73.20-43.60 58.40-44.60L58.40-44.60L58.40-44.60Q41.20-45.80 32-52.60L32-52.60L32-52.60Q22.80-59.40 22.80-72.40L22.80-72.40L22.80-73.60L22.80-73.60Q22.80-80.60 25.80-85.90L25.80-85.90L25.80-85.90Q28.80-91.20 33.90-94.80L33.90-94.80L33.90-94.80Q39-98.40 45.40-100.20L45.40-100.20L45.40-100.20Q51.80-102 58.80-102L58.80-102L58.80-102Q68.60-102 76-99.30L76-99.30L76-99.30Q83.40-96.60 88.40-92.30L88.40-92.30L88.40-92.30Q93.40-88 96.10-82.40L96.10-82.40L96.10-82.40Q98.80-76.80 99.60-71.20L99.60-71.20L84.80-67.60L84.80-67.60Q83.80-77.20 77.10-82.60L77.10-82.60L77.10-82.60Q70.40-88 59.60-88L59.60-88L59.60-88Q55.40-88 51.50-87.10L51.50-87.10L51.50-87.10Q47.60-86.20 44.60-84.40L44.60-84.40L44.60-84.40Q41.60-82.60 39.80-79.90L39.80-79.90L39.80-79.90Q38-77.20 38-73.60ZM134.20-84.80L134.20-99.20L170.20-99.20L170.20-86L172.60-86L172.60-86Q176.40-94.20 183.40-98.10L183.40-98.10L183.40-98.10Q190.40-102 199.40-102L199.40-102L199.40-102Q214.40-102 223.60-92.20L223.60-92.20L223.60-92.20Q232.80-82.40 233.40-63.60L233.40-63.60L217-61.20L217-61.20Q217-75 210.40-81.10L210.40-81.10L210.40-81.10Q203.80-87.20 194.20-87.20L194.20-87.20L194.20-87.20Q188-87.20 183.50-84.80L183.50-84.80L183.50-84.80Q179-82.40 176-78.20L176-78.20L176-78.20Q173-74 171.60-68.40L171.60-68.40L171.60-68.40Q170.20-62.80 170.20-56.40L170.20-56.40L170.20-14.40L195.40-14.40L195.40 0L131.80 0L131.80-14.40L154.60-14.40L154.60-84.80L134.20-84.80Z" fill="rgba(83.921568627451%,83.5294117647059%,89.01960784313727%,0.025)"></path></g></g><style>text {
  font-size: 64px;
  font-family: Arial Black;
  dominant-baseline: central;
  text-anchor: middle;
}</style></svg>